<svg version="1.1" id="Layer_1" xmlns="http://www.w3.org/2000/svg" xmlns:xlink="http://www.w3.org/1999/xlink" x="0px" y="0px"
	 width="100%" viewBox="0 0 1024 1024" enable-background="new 0 0 1024 1024" xml:space="preserve">
<path fill="#000000" opacity="1.000000" stroke="none" 
	d="
M654.611938,564.461304 
	C632.801575,550.158386 614.966431,531.920410 597.568481,513.282104 
	C570.062866,483.815552 542.681152,454.227814 515.632446,424.342529 
	C498.863770,405.815399 482.148834,387.252167 464.780304,369.281952 
	C429.910492,333.204132 387.871246,310.520447 338.571594,301.077087 
	C328.642029,299.175079 318.561768,297.709076 309.001190,294.100555 
	C292.003235,287.684875 286.418671,272.992645 292.200531,257.258789 
	C299.924164,236.240692 311.018829,216.768753 326.800537,200.470428 
	C339.953217,186.887192 356.320770,179.866531 375.088226,179.821976 
	C464.905457,179.608749 554.724121,179.532562 644.540771,179.844955 
	C670.478699,179.935150 690.868469,191.947876 704.333374,213.880692 
	C718.002197,236.145691 730.219543,259.299042 743.187439,281.997711 
	C764.423340,319.168671 785.700745,356.316132 807.060486,393.416016 
	C820.607666,416.946198 834.406616,440.331390 847.948669,463.864471 
	C853.622009,473.723572 858.352234,483.919922 858.362732,495.743408 
	C858.371399,505.426453 855.257507,514.133179 850.464661,522.206421 
	C828.702759,558.862976 797.039429,581.853333 754.676453,587.958191 
	C718.740356,593.136963 685.220459,585.060791 654.611938,564.461304 
M365.011139,198.432617 
	C356.693451,200.210342 349.345459,203.957245 342.845856,209.400101 
	C337.564484,213.822769 333.251648,219.150848 329.387421,224.772339 
	C322.209076,235.215088 315.974304,246.254501 310.501617,257.669220 
	C305.085968,268.964996 308.607178,276.614014 320.492737,280.334534 
	C323.654358,281.324188 326.918091,282.037537 330.176544,282.659943 
	C358.389893,288.049164 385.929108,295.550079 411.570251,308.877289 
	C436.939178,322.062927 459.000275,339.700165 479.081360,359.874817 
	C501.420227,382.317749 522.258362,406.157867 543.562927,429.565948 
	C565.424255,453.585876 587.579712,477.338837 609.680420,501.140015 
	C626.701355,519.470642 644.103455,537.409485 665.083496,551.372925 
	C692.301025,569.487671 722.222107,576.732178 754.432312,571.223999 
	C789.429199,565.239258 815.741272,545.897278 834.206299,515.650696 
	C842.005127,502.875916 842.848816,490.040100 835.313232,476.940186 
	C824.349915,457.881500 813.229675,438.912781 802.322021,419.822479 
	C765.714783,355.753662 729.194031,291.635345 692.591553,227.563812 
	C681.151978,207.539154 664.244141,197.165833 640.727783,197.222290 
	C555.238647,197.427536 469.748688,197.302292 384.259033,197.312531 
	C378.108459,197.313263 371.933136,196.963165 365.011139,198.432617 
z"/>
<path fill="#000000" opacity="1.000000" stroke="none" 
	d="
M276.821808,686.117737 
	C245.228256,632.201233 214.474579,578.225891 183.961334,524.113281 
	C179.028458,515.365295 174.794281,506.280304 174.740341,495.950653 
	C174.674713,483.383911 180.179260,472.722687 187.103333,462.793060 
	C206.874466,434.439880 233.678391,416.162811 267.706879,410.028046 
	C311.129578,402.199646 350.148224,413.045929 384.450195,440.772034 
	C401.643707,454.669434 415.932404,471.395721 430.385651,487.978241 
	C465.191650,527.911926 500.268219,567.611450 536.967590,605.826050 
	C557.863098,627.584167 579.423157,648.628357 604.931152,665.194092 
	C630.080261,681.526733 657.686890,690.951050 687.085876,695.766052 
	C696.420471,697.294861 705.761963,698.905823 714.975769,701.021179 
	C732.575195,705.061707 741.979431,719.401062 735.659668,736.445068 
	C726.279785,761.741882 712.668884,784.901489 691.598328,802.678101 
	C678.524597,813.707947 662.898193,817.831726 646.133057,817.870117 
	C627.481140,817.912842 608.828491,817.422058 590.175781,817.395142 
	C528.191711,817.305725 466.201172,816.787415 404.225769,817.513855 
	C371.956970,817.892090 348.821838,803.871826 331.869232,777.630188 
	C312.610016,747.817993 295.055603,716.976685 276.821808,686.117737 
M333.294952,747.274841 
	C338.752869,756.239502 343.969543,765.365112 350.193298,773.833862 
	C362.578522,790.686707 378.495850,800.076172 400.203888,799.871765 
	C449.694702,799.405823 499.193359,799.621033 548.688110,799.778564 
	C580.011230,799.878174 611.345032,799.143982 642.656189,800.543152 
	C661.308167,801.376526 676.891479,795.032349 689.192932,780.942322 
	C700.677307,767.788330 709.741516,753.061462 716.702026,737.089050 
	C721.881348,725.204102 717.840515,717.861511 705.003479,715.309631 
	C691.809204,712.686768 678.502502,710.587646 665.377991,707.662659 
	C620.310486,697.618713 582.721191,674.098328 549.811646,642.489746 
	C512.524719,606.676880 478.346924,567.940002 443.909668,529.444153 
	C423.476654,506.602966 404.496765,482.429108 382.409271,461.104523 
	C353.422546,433.118958 318.889984,420.248077 278.570984,425.314972 
	C244.748611,429.565460 218.285202,445.976593 199.863602,475.018768 
	C191.745605,487.817017 190.424530,500.544464 198.130844,514.025757 
	C213.671432,541.212219 228.789124,568.642151 244.482178,595.739441 
	C273.702362,646.194214 302.705963,696.778076 333.294952,747.274841 
z"/>
</svg>