<svg version="1.1" xmlns="http://www.w3.org/2000/svg" viewBox="270 87 489 489" width="100%" xml:space="preserve">
<path fill="none" stroke="currentColor" stroke-width="8" opacity="1.000000"
	d="
M467.101135,109.995880 
	C488.626068,102.266129 509.850006,94.849487 530.913391,87.001854 
	C537.549255,84.529503 544.040771,85.315125 550.608398,86.048866 
	C578.888428,89.208344 607.149292,92.538864 635.420898,95.774353 
	C647.651306,97.174057 659.904846,98.381615 672.121765,99.887894 
	C681.317261,101.021645 688.317322,106.384735 687.621826,117.979126 
	C685.976990,145.397720 685.298523,172.873535 684.149048,200.322845 
	C682.839172,231.598831 681.501770,262.873901 680.064148,294.144226 
	C678.863892,320.253815 677.531982,346.357483 676.201294,372.460876 
	C675.294373,390.250122 674.228821,408.031525 673.375671,425.823212 
	C673.192444,429.644043 671.462097,432.369873 668.855347,434.911346 
	C637.479553,465.500824 606.140808,496.128265 574.786987,526.740234 
	C560.959229,540.240845 546.603271,553.249023 533.457092,567.382812 
	C523.908081,577.649231 513.952454,578.995239 501.103302,575.099731 
	C458.259521,562.110535 415.211121,549.794434 372.213776,537.314514 
	C359.023560,533.486145 355.081573,528.596497 354.786835,514.931580 
	C354.082825,482.294708 350.823578,449.783417 350.048828,417.144623 
	C349.570740,397.003571 349.070984,376.838806 347.664368,356.748871 
	C344.418304,310.388031 344.516479,263.911102 342.298523,217.516022 
	C341.528961,201.418884 340.632660,185.242218 341.765228,169.129822 
	C342.460388,159.240250 348.156677,152.995209 357.756134,149.580780 
	C394.154449,136.634277 430.421783,123.319466 467.101135,109.995880 
M580.893982,437.384888 
	C607.019775,414.111969 633.118042,390.807983 659.309998,367.609772 
	C662.225891,365.027130 664.008728,362.366089 664.140808,358.300293 
	C664.594849,344.325958 665.346924,330.361481 665.965820,316.392365 
	C667.580017,279.956818 669.130615,243.518387 670.809692,207.085846 
	C671.998108,181.299698 673.396912,155.523285 674.612549,129.738312 
	C675.035156,120.773598 673.714966,119.896225 665.892944,123.826836 
	C640.442566,136.615646 615.083923,149.588882 589.550842,162.209457 
	C584.863525,164.526337 582.997742,167.302521 583.059692,172.574982 
	C583.314331,194.237823 583.306580,215.907059 583.086487,237.570801 
	C582.971375,248.899551 581.403076,259.979309 572.314087,268.205719 
	C556.546631,282.476715 548.667175,300.848999 544.292297,321.153687 
	C540.978271,336.534546 540.402344,352.186951 539.524780,367.792419 
	C538.922119,378.509033 533.502258,385.249634 523.762146,388.573883 
	C518.721436,390.294250 517.289612,393.425781 517.309875,398.338226 
	C517.427551,426.813324 517.372620,455.289093 517.408691,483.764587 
	C517.411560,486.038086 516.768738,488.937439 519.305359,490.042999 
	C521.914429,491.180206 523.413757,488.450775 525.062195,486.991333 
	C543.524597,470.645142 561.933105,454.238068 580.893982,437.384888 
M504.326416,201.561432 
	C502.876770,198.671982 499.932434,198.823593 497.416595,198.329178 
	C452.697632,189.540817 407.968445,180.804428 363.240356,172.062592 
	C354.421326,170.338959 353.730896,170.980423 354.078522,179.956284 
	C355.128723,207.074600 356.246185,234.190918 357.136536,261.314606 
	C357.917877,285.117889 358.433044,308.929962 359.055298,332.738403 
	C359.264435,340.740509 360.394592,341.923309 368.292114,343.732269 
	C380.612793,346.554382 392.896759,349.539703 405.176483,352.537048 
	C435.563507,359.954224 465.934723,367.436096 496.323273,374.847046 
	C502.714813,376.405762 504.593719,374.940948 504.649261,368.329590 
	C504.735992,357.999237 504.686920,347.667633 504.676910,337.336578 
	C504.633209,292.348267 504.582886,247.359940 504.326416,201.561432 
M498.192352,388.257416 
	C455.404144,377.735718 412.619354,367.200043 369.824463,356.705597 
	C362.440277,354.894836 360.971100,356.111084 361.211456,363.914551 
	C362.179718,395.347534 363.335602,426.775482 364.104370,458.213104 
	C364.238281,463.689209 366.157501,466.347839 371.404236,467.630096 
	C390.619843,472.326019 409.767395,477.299988 428.944672,482.153046 
	C451.511719,487.863953 474.075653,493.587311 496.657318,499.239899 
	C502.639191,500.737213 504.629791,499.340424 504.641876,493.481659 
	C504.708588,461.178467 504.664612,428.875031 504.707977,396.571777 
	C504.713593,392.399414 503.223511,389.477325 498.192352,388.257416 
M517.341797,552.331055 
	C517.340942,552.830566 517.281677,553.338196 517.349121,553.828308 
	C517.692688,556.326477 516.128601,559.744324 519.297119,560.965637 
	C522.144348,562.063049 523.512085,558.870117 525.196533,557.235291 
	C541.445251,541.465027 557.616089,525.614502 573.813354,509.791046 
	C601.799072,482.451172 629.777466,455.103760 657.796387,427.797852 
	C659.830383,425.815582 660.871826,423.620880 661.011963,420.779663 
	C661.512024,410.645996 662.175781,400.520416 662.687256,390.387238 
	C662.783630,388.477570 663.425537,386.128632 661.175293,384.991913 
	C658.785583,383.784760 657.540039,386.070435 656.154907,387.290924 
	C635.674316,405.337372 615.246765,423.444000 594.804199,441.533722 
	C570.248596,463.263153 545.698608,484.999176 521.120667,506.703308 
	C518.748047,508.798492 517.351257,511.104309 517.378845,514.449646 
	C517.480225,526.757874 517.375793,539.067810 517.341797,552.331055 
M598.285278,143.728104 
	C616.744568,134.483170 635.211182,125.252769 653.650818,115.968742 
	C655.327393,115.124580 657.947754,114.611710 657.313110,111.992355 
	C656.759155,109.705688 654.315186,110.367462 652.599609,110.151802 
	C639.566772,108.513466 626.543091,106.783203 613.486267,105.359558 
	C590.507202,102.854050 567.497803,100.625595 544.525085,98.065559 
	C541.268250,97.702614 538.354370,97.821144 535.290710,98.937256 
	C508.238800,108.792610 481.154022,118.557808 454.091553,128.384232 
	C452.175201,129.080063 450.043335,129.644928 449.040771,131.986938 
	C452.546448,133.751694 456.101868,133.504807 459.509003,133.993088 
	C489.298492,138.262100 519.104553,142.419128 548.873474,146.826309 
	C558.037415,148.182999 567.514038,148.456329 575.922729,153.162399 
	C577.817688,154.222931 579.498108,153.184662 581.114868,152.381851 
	C586.632874,149.641785 592.116577,146.832489 598.285278,143.728104 
M454.729980,500.990417 
	C427.659821,494.156647 400.594452,487.303864 373.515778,480.503937 
	C367.617889,479.022888 366.137482,480.101227 366.267975,486.110840 
	C366.473694,495.587128 366.987732,505.056335 367.290802,514.531128 
	C367.496857,520.972717 369.017181,523.090149 375.156769,524.913940 
	C385.835785,528.086243 396.512177,531.268005 407.206055,534.389709 
	C436.734436,543.009399 466.260223,551.638611 495.813385,560.172852 
	C502.453705,562.090393 504.521637,560.559448 504.598938,553.746887 
	C504.727356,542.429260 504.596863,531.108948 504.650024,519.790100 
	C504.670044,515.525696 502.915771,513.073975 498.581543,512.026550 
	C484.197388,508.550507 469.872314,504.829681 454.729980,500.990417 
M517.312256,316.499878 
	C517.301941,334.480621 517.288879,352.461334 517.285034,370.442078 
	C517.284607,372.474274 517.261841,374.697876 519.646240,375.431335 
	C522.093445,376.184113 523.718140,374.517914 525.131470,372.813690 
	C526.352661,371.341125 526.655396,369.543671 526.777344,367.677490 
	C527.395569,358.215576 527.850647,348.737549 528.727234,339.299011 
	C531.566467,308.727417 539.798523,280.443787 563.576782,258.925964 
	C567.495911,255.379410 569.494507,250.814682 569.645325,245.660080 
	C570.078552,230.857544 570.550720,216.045914 570.439575,201.242142 
	C570.387146,194.265442 569.892334,187.284363 570.277893,180.299561 
	C570.396484,178.149612 571.180420,175.667526 569.268066,174.186584 
	C567.008789,172.436920 564.797485,174.427475 562.843689,175.409836 
	C549.612488,182.062561 536.524475,189.003937 523.223999,195.512527 
	C518.704651,197.724075 517.162537,200.586258 517.191772,205.619141 
	C517.404541,242.245026 517.309387,278.872711 517.312256,316.499878 
M534.944275,175.391403 
	C542.916138,171.199844 551.205383,167.558304 558.600708,162.571533 
	C557.674072,159.911041 555.797546,159.866455 554.264526,159.587158 
	C549.685730,158.752975 545.077942,158.064148 540.467041,157.422211 
	C504.907471,152.471497 469.347778,147.520996 433.779449,142.633926 
	C427.419952,141.760147 421.190948,140.198502 414.629425,142.756653 
	C402.078705,147.649811 389.276184,151.894745 376.611328,156.499939 
	C374.740448,157.180237 372.357025,157.490784 371.675781,160.278870 
	C374.183990,161.755615 376.803619,162.167358 379.389740,162.670227 
	C421.494232,170.857224 463.602844,179.023590 505.696869,187.264114 
	C508.797729,187.871155 511.563690,187.620392 514.357361,186.124390 
	C520.960022,182.588638 527.631653,179.181641 534.944275,175.391403 
z"/>
</svg>
